<svg version="1.2" xmlns="http://www.w3.org/2000/svg" viewBox="0 0 1444 348" width="1444" height="348"><style>.a{fill:#008080}</style><path fill-rule="evenodd" class="a" d="m573.6 196.2v47h-34.7v-125.9h68.1q8.8 0 16.9 2.4 8.1 2.4 14.4 7.1 6.2 4.8 9.9 12 3.7 7.2 3.7 16.9 0 6.2-1.7 11.5-1.8 5.4-4.9 9.9-3.1 4.4-7.3 8-4.2 3.6-9.2 6-5 2.5-10.6 3.8-5.5 1.3-11.2 1.3zm43-40.5q0-12.1-6.1-19.1-6.2-6.9-18.6-6.9h-18.3v54.6h18.3q6.6 0 11.3-2.1 4.7-2.2 7.7-6 3-3.9 4.3-9 1.4-5.3 1.4-11.5zm81.5-37.8q0 3.3-1.2 6.3-1.3 3-3.5 5.1-2.2 2.2-5.1 3.5-3 1.3-6.4 1.3-3.3 0-6.2-1.3-2.9-1.3-5.1-3.5-2.2-2.1-3.5-5.1-1.3-3-1.3-6.3 0-3.3 1.3-6.3 1.3-2.9 3.5-5.1 2.2-2.1 5.1-3.4 2.9-1.3 6.2-1.3 3.4 0 6.4 1.3 2.9 1.3 5.1 3.4 2.2 2.2 3.5 5.1 1.2 3 1.2 6.3zm-1.3 24.5v100.8h-29.6v-100.8zm118.1 24.9l-12.8 5q-3.1-9.6-10.2-14.7-7.2-5.2-17.3-5.2-5.4 0-9.7 1.7-4.2 1.7-7.4 4.7-3.2 3-5.4 6.9-2.3 3.9-3.7 8.4-1.4 4.4-2 9.2-0.6 4.8-0.6 9.2 0 4.8 0.5 9.7 0.6 4.9 1.8 9.4 1.3 4.5 3.4 8.4 2.1 3.9 5.3 6.8 3.2 2.9 7.6 4.5 4.4 1.7 10.2 1.7 4.6 0 8.8-1.4 4.2-1.4 7.7-3.9 3.6-2.5 6.2-6.1 2.8-3.5 4.3-7.7l12.9 4.7q-2.9 6.9-7.7 11.9-4.7 5-10.7 8.3-6.1 3.3-13 4.9-6.9 1.5-14 1.5-11.5 0-21.3-3.8-9.8-3.9-16.9-11-7.2-7-11.2-16.7-4-9.6-4-21.2 0-11.6 4-21.3 4-9.7 11-16.7 7.1-7 16.9-10.8 9.8-3.9 21.5-3.9 7.3 0 14.3 1.6 7 1.7 13.1 5 5.9 3.4 10.7 8.5 4.8 5.2 7.7 12.4zm122.7 37.5q0 8.1-2.1 14.3-2 6.2-5.7 10.7-3.8 4.6-8.9 7.7-5 3-11 4.9-6 1.8-12.7 2.6-6.7 0.8-13.6 0.8-9.1 0-16.8-1.4-7.7-1.3-14.5-4.3-6.8-2.9-13.1-7.5-6.2-4.7-12.5-11.3l17.9-18.1q2.5 6 6.7 11.1 4.3 5.2 9.5 8.8 5.1 3.7 10.6 5.8 5.5 2.1 10.4 2.1 5.8 0 10.9-0.8 5-0.9 8.8-2.8 3.8-1.9 5.9-5.1 2.2-3.2 2.2-8 0-3.7-1.7-6.3-1.7-2.6-4.3-4.5-2.7-1.9-6.1-3.2-3.4-1.3-7-2.2-3.5-0.9-6.9-1.7-3.4-0.7-6.1-1.5-5.1-1.5-10.7-3.2-5.6-1.7-11-3.9-5.5-2.2-10.3-5-4.9-2.9-8.6-6.7-3.7-3.9-5.8-9.1-2.2-5.1-2.2-11.7 0-7.9 1.9-14.1 2-6.2 5.6-10.7 3.6-4.6 8.5-7.7 4.9-3.1 10.7-5 5.9-1.8 12.5-2.7 6.6-0.8 13.5-0.8 9.5 0 17.3 1.8 7.7 1.7 14.3 4.9 6.5 3.3 12 7.8 5.5 4.5 10.3 10l-17.9 18.1q-2.1-6.3-5.8-11.4-3.7-5.1-8.2-8.7-4.6-3.6-9.6-5.6-5-2-9.6-2-6.1 0-11.1 0.9-5.1 0.8-8.8 2.7-3.6 1.9-5.6 5.1-2 3.1-2 7.9 0 3.7 1.5 6.3 1.4 2.7 4 4.5 2.4 1.9 5.6 3 3.1 1.2 6.5 2.1 3.4 0.9 6.7 1.5 3.2 0.7 6 1.4 5.2 1.5 11 3.2 5.8 1.6 11.4 3.9 5.6 2.2 10.7 5.1 5 2.9 8.9 6.9 3.8 3.9 6.1 9.2 2.3 5.1 2.3 11.9zm112-37.5l-12.8 5q-3.1-9.6-10.3-14.7-7.2-5.2-17.2-5.2-5.5 0-9.7 1.7-4.3 1.7-7.4 4.7-3.2 3-5.5 6.9-2.2 3.9-3.6 8.4-1.4 4.4-2 9.2-0.6 4.8-0.6 9.2 0 4.8 0.5 9.7 0.5 4.9 1.8 9.4 1.3 4.5 3.4 8.4 2.1 3.9 5.3 6.8 3.2 2.9 7.6 4.5 4.4 1.7 10.2 1.7 4.6 0 8.8-1.4 4.2-1.4 7.7-3.9 3.5-2.5 6.2-6.1 2.8-3.5 4.3-7.7l12.9 4.7q-2.9 6.9-7.7 11.9-4.7 5-10.8 8.3-6 3.3-12.9 4.9-7 1.5-14 1.5-11.5 0-21.3-3.8-9.8-3.9-17-11-7.1-7-11.1-16.7-4.1-9.6-4.1-21.2 0-11.6 4.1-21.3 3.9-9.7 11-16.7 7.1-7 16.9-10.8 9.8-3.9 21.5-3.9 7.3 0 14.3 1.6 7 1.7 13 5 6 3.4 10.8 8.5 4.8 5.2 7.7 12.4zm103.4-16.1l-16.6 27.5q-1.1-3.5-2.8-7.8-1.6-4.4-4-8.2-2.5-3.8-5.9-6.4-3.4-2.6-7.9-2.6-4.1 0-7.1 2.1-3.1 2.1-5.1 5.5-2.2 3.3-3.5 7.6-1.4 4.2-2.1 8.6-0.7 4.3-1 8.3-0.3 3.9-0.3 6.8v50.6h-29.6v-100.9h11.3l12 23.5q2.5-5.7 5.6-10.5 3.2-4.7 7.3-8.2 4.1-3.4 9.3-5.3 5.2-2 11.8-2 3.4 0 7.6 0.6 4.2 0.6 8.2 1.9 4.1 1.4 7.5 3.5 3.4 2.2 5.3 5.4zm43.4-33.3q0 3.3-1.3 6.3-1.2 3-3.4 5.1-2.2 2.2-5.2 3.5-2.9 1.3-6.3 1.3-3.3 0-6.2-1.3-3-1.3-5.1-3.5-2.2-2.1-3.5-5.1-1.3-3-1.3-6.3 0-3.3 1.3-6.3 1.3-2.9 3.5-5.1 2.1-2.1 5.1-3.4 2.9-1.3 6.2-1.3 3.4 0 6.3 1.3 3 1.3 5.2 3.4 2.2 2.2 3.4 5.1 1.3 3 1.3 6.3zm-1.3 24.5v100.8h-29.7v-100.8zm132.3 50.5q0 11-3.3 20.6-3.4 9.6-9.7 16.7-6.3 7.2-15.4 11.3-9.1 4.1-20.6 4.1-5.9 0-11.2-1.8-5.3-1.7-9.7-4.9-4.4-3.2-7.8-7.6-3.4-4.5-5.3-10l-13.1 21.9h-11.4v-138.1h29.6v49.2q5.2-7.2 12.6-10.6 7.4-3.4 16.3-3.4 11.5 0 20.6 4.1 9.1 4.1 15.4 11.2 6.3 7 9.7 16.7 3.3 9.6 3.3 20.6zm-30.1 0q0-3.9-0.4-8.2-0.3-4.3-1.3-8.6-0.9-4.3-2.7-8.2-1.7-3.9-4.3-7-2.6-3-6.3-4.8-3.7-1.8-8.7-1.8-4.5 0-8.1 1.9-3.5 1.9-6.2 5-2.7 3.2-4.5 7.2-1.8 4-3 8.3-1.1 4.3-1.6 8.5-0.5 4.2-0.5 7.7 0 3.9 0.3 8.3 0.4 4.4 1.4 8.7 1 4.3 2.7 8.2 1.7 3.9 4.3 6.9 2.7 3 6.4 4.8 3.7 1.7 8.8 1.7 5 0 8.6-1.8 3.8-1.8 6.4-4.8 2.6-3 4.3-7 1.8-4 2.7-8.3 1-4.2 1.3-8.5 0.4-4.4 0.4-8.2zm146.4-17.5q0 6.2-2 11-2 4.9-5.5 8.6-3.4 3.7-8 6.2-4.5 2.5-9.7 4.2-5.2 1.6-10.6 2.2-5.5 0.8-10.7 0.8-6.5 0-12.9-1-6.4-0.9-12.6-2.9 0.9 5.8 3 11 2.1 5.2 5.6 9.1 3.5 3.8 8.7 6.1 5.1 2.3 12.1 2.3 4.6 0 8.8-1.4 4.2-1.4 7.7-3.9 3.5-2.5 6.2-6.1 2.7-3.5 4.3-7.7l12.8 4.7q-2.9 6.9-7.9 11.9-5 5-11.4 8.3-6.3 3.3-13.5 4.9-7.1 1.5-14.1 1.5-11.6 0-21.4-3.8-9.8-3.9-16.8-10.9-7.1-7-11.2-16.7-4-9.7-4-21.3 0-11.5 4-21.2 4.1-9.7 11.2-16.7 7-7 16.8-10.9 9.8-3.9 21.4-3.9 5.6 0 11.4 0.8 5.9 0.8 11.5 2.5 5.5 1.7 10.3 4.4 5 2.7 8.6 6.7 3.6 4 5.8 9.2 2.1 5.3 2.1 12zm-72.9 19.9q5.4 1.2 10.8 2 5.5 0.6 11 0.6 5.8 0 10.7-1 4.9-1.1 8.6-3.7 3.6-2.6 5.7-6.9 2.1-4.3 2.1-10.6 0-5.2-1.4-9.5-1.4-4.3-4.1-7.3-2.8-3.1-6.8-4.8-4-1.7-9.4-1.7-5 0-8.9 1.9-4.1 1.8-7.1 4.9-3 3.1-5.1 7.2-2.2 4.1-3.6 8.6-1.4 4.4-2 9-0.6 4.5-0.6 8.5 0 0.8 0 1.4 0 0.7 0.1 1.4z"/><path fill-rule="evenodd" class="a" d="m337.9 281c-49.6 0-89.7-40-89.7-89.6 0-49.6 40.1-89.6 89.7-89.6 49.7 0 89.8 40 89.8 89.6 0 49.6-40.1 89.6-89.8 89.6zm69-89.6c0-38.1-30.8-68.9-69-68.9-38.2 0-69 30.8-69 68.9 0 38.1 30.8 68.9 69 68.9 38.2 0 69-30.8 69-68.9z"/><path fill-rule="evenodd" class="a" d="m492.4 31.7c2.4 1 4.6 2.4 6.4 4.3 1.9 1.8 3.3 4 4.4 6.5 1 2.4 1.5 5 1.5 7.6v258.9c0 2.6-0.5 5.2-1.5 7.6-1.1 2.5-2.5 4.7-4.4 6.5-1.8 1.9-4 3.3-6.4 4.3-2.5 1-5.1 1.5-7.7 1.5h-458.8c-2.6 0-5.2-0.5-7.6-1.5-2.4-1-4.6-2.4-6.5-4.3-1.8-1.8-3.3-4-4.3-6.5-1-2.4-1.5-5-1.5-7.6v-258.9c0-2.6 0.5-5.2 1.5-7.6 1-2.5 2.5-4.7 4.3-6.5 1.9-1.9 4.1-3.3 6.5-4.3 2.4-1 5-1.5 7.6-1.5h31.7c0.4-1.6 1-3.1 1.9-4.5 0.8-1.3 1.9-2.6 3.2-3.6 1.2-1 2.7-1.8 4.2-2.3 1.5-0.5 3.1-0.8 4.7-0.8h87.8c1.6 0 3.2 0.3 4.7 0.8 1.6 0.5 3 1.3 4.2 2.3 1.3 1 2.4 2.3 3.2 3.6 0.9 1.4 1.5 2.9 1.9 4.5h311.3c2.6 0 5.2 0.5 7.7 1.5zm-314.7 45.4c2.3-2.3 3.6-5.4 3.6-8.7 0-3.3-1.3-6.4-3.6-8.7-2.3-2.3-5.5-3.7-8.7-3.7h-106.9c-3.3 0-6.5 1.4-8.8 3.7-2.3 2.3-3.6 5.4-3.6 8.7 0 3.3 1.3 6.4 3.6 8.7 2.3 2.3 5.5 3.6 8.8 3.6h106.9c3.2 0 6.4-1.3 8.7-3.6zm269.9 114.3c0-60.6-49-109.6-109.7-109.6-60.7 0-109.7 49-109.7 109.6 0 60.6 49 109.6 109.7 109.6 60.7 0 109.7-49 109.7-109.6zm33.8-114c2.4-2.4 3.7-5.6 3.7-9 0-3.4-1.3-6.6-3.7-9-2.4-2.4-5.7-3.8-9-3.8-3.4 0-6.7 1.4-9.1 3.8-2.4 2.4-3.7 5.6-3.7 9 0 3.4 1.3 6.6 3.7 9 2.4 2.4 5.7 3.7 9.1 3.7 3.3 0 6.6-1.3 9-3.7z"/></svg>